<?xml version="1.0" encoding="UTF-8" standalone="no"?>
<!-- Created with Inkscape (http://www.inkscape.org/) -->

<svg
   version="1.1"
   id="svg2"
   width="21.333332"
   height="21.333332"
   viewBox="0 0 21.333332 21.333332"
   sodipodi:docname="ETCE favicons.ai"
   xmlns:inkscape="http://www.inkscape.org/namespaces/inkscape"
   xmlns:sodipodi="http://sodipodi.sourceforge.net/DTD/sodipodi-0.dtd"
   xmlns="http://www.w3.org/2000/svg"
   xmlns:svg="http://www.w3.org/2000/svg">
  <defs
     id="defs6">
    <clipPath
       clipPathUnits="userSpaceOnUse"
       id="clipPath16">
      <path
         d="M 0,16 H 16 V 0 H 0 Z"
         id="path14" />
    </clipPath>
  </defs>
  <sodipodi:namedview
     id="namedview4"
     pagecolor="#ffffff"
     bordercolor="#000000"
     borderopacity="0.25"
     inkscape:showpageshadow="2"
     inkscape:pageopacity="0.0"
     inkscape:pagecheckerboard="0"
     inkscape:deskcolor="#d1d1d1" />
  <g
     id="g8"
     inkscape:groupmode="layer"
     inkscape:label="ETCE favicons"
     transform="matrix(1.3333333,0,0,-1.3333333,0,21.333333)">
    <g
       id="g10">
      <g
         id="g12"
         clip-path="url(#clipPath16)">
        <g
           id="g18"
           transform="translate(7.9413,1.7914)">
          <path
             d="m 0,0 c -1.254,0 -2.458,0.43 -3.439,1.239 -1.118,0.922 -1.811,2.223 -1.95,3.666 -0.139,1.442 0.292,2.852 1.213,3.971 0.177,0.214 0.371,0.416 0.576,0.6 0.105,0.093 0.266,0.084 0.36,-0.02 C -3.147,9.351 -3.156,9.19 -3.26,9.096 -3.447,8.93 -3.623,8.746 -3.783,8.552 -4.618,7.539 -5.009,6.261 -4.882,4.954 -4.756,3.647 -4.129,2.467 -3.116,1.632 -2.095,0.79 -0.808,0.401 0.509,0.535 0.649,0.549 0.773,0.447 0.788,0.307 0.802,0.168 0.7,0.043 0.56,0.029 0.373,0.009 0.186,0 0,0"
             style="fill:#ff931e;fill-opacity:1;fill-rule:nonzero;stroke:none"
             id="path20" />
        </g>
        <g
           id="g22"
           transform="translate(13.0607,7.7579)">
          <path
             d="m 0,0 c -0.123,0 -0.232,0.09 -0.251,0.215 -0.185,1.192 -0.8,2.27 -1.731,3.038 -1.502,1.237 -3.596,1.473 -5.335,0.599 -0.126,-0.063 -0.279,-0.012 -0.342,0.114 -0.063,0.125 -0.012,0.278 0.113,0.341 1.92,0.964 4.23,0.704 5.887,-0.661 C -0.631,2.799 0.048,1.608 0.252,0.294 0.273,0.155 0.178,0.025 0.039,0.003 0.026,0.001 0.013,0 0,0"
             style="fill:#ff931e;fill-opacity:1;fill-rule:nonzero;stroke:none"
             id="path24" />
        </g>
        <g
           id="g26"
           transform="translate(6.9729,2.1895)">
          <path
             d="m 0,0 -0.401,0.314 c 0.046,0.059 0.107,0.14 0.171,0.226 0.182,0.242 0.407,0.543 0.582,0.721 0.139,0.143 0.376,0.26 0.605,0.372 C 1.077,1.693 1.213,1.76 1.26,1.798 1.345,1.867 1.472,1.971 1.564,2.154 1.642,2.31 1.656,2.446 1.669,2.566 1.686,2.732 1.699,2.862 1.645,3.013 1.576,3.202 1.443,3.309 1.387,3.355 1.262,3.455 1.143,3.491 0.856,3.576 0.745,3.61 0.679,3.624 0.522,3.657 0.428,3.677 0.305,3.703 0.126,3.743 0.071,3.755 0.026,3.76 -0.018,3.765 c -0.094,0.01 -0.201,0.021 -0.318,0.103 -0.123,0.084 -0.28,0.253 -0.338,0.579 -0.046,0.256 0.017,0.459 0.067,0.622 0.13,0.422 0.195,0.634 0.307,0.929 0.108,0.285 0.162,0.436 0.198,0.536 C -0.048,6.681 -0.034,6.72 0.042,6.89 0.146,7.12 0.157,7.183 0.145,7.313 0.131,7.482 0.006,7.598 -0.009,7.611 -0.131,7.719 -0.276,7.728 -0.382,7.734 -0.636,7.75 -0.828,7.645 -1.071,7.513 -1.235,7.424 -1.421,7.323 -1.585,7.12 -1.717,6.959 -1.773,6.814 -1.853,6.592 -1.927,6.388 -1.945,6.267 -1.964,6.14 -1.987,5.992 -2.01,5.84 -2.112,5.6 -2.209,5.372 -2.319,5.113 -2.593,4.919 -2.736,4.819 -2.887,4.77 -3.162,4.683 -3.261,4.651 -3.468,4.59 -3.74,4.538 -3.921,4.503 -4.106,4.477 -4.29,4.46 l -0.046,0.507 c 0.167,0.015 0.335,0.039 0.5,0.07 0.246,0.048 0.43,0.102 0.519,0.13 0.25,0.08 0.355,0.115 0.43,0.168 0.146,0.103 0.213,0.244 0.307,0.464 0.076,0.181 0.092,0.285 0.112,0.417 0.022,0.14 0.046,0.298 0.136,0.549 0.078,0.216 0.159,0.44 0.352,0.677 0.228,0.28 0.481,0.417 0.665,0.518 0.265,0.143 0.564,0.306 0.964,0.282 C -0.213,8.234 0.076,8.217 0.33,7.991 0.398,7.93 0.622,7.705 0.652,7.358 0.675,7.104 0.628,6.95 0.506,6.681 0.438,6.529 0.429,6.503 0.377,6.361 0.34,6.26 0.285,6.106 0.176,5.818 0.07,5.538 0.006,5.331 -0.121,4.919 -0.168,4.765 -0.196,4.664 -0.173,4.537 -0.146,4.383 -0.089,4.316 -0.047,4.286 -0.038,4.28 -0.028,4.278 0.037,4.271 0.089,4.265 0.154,4.258 0.237,4.24 0.414,4.2 0.535,4.174 0.627,4.155 0.789,4.12 0.87,4.103 1.002,4.064 1.315,3.971 1.504,3.914 1.706,3.751 1.78,3.691 2.006,3.509 2.123,3.187 2.218,2.927 2.195,2.707 2.175,2.514 2.161,2.375 2.139,2.164 2.019,1.925 1.878,1.646 1.686,1.489 1.582,1.404 1.49,1.329 1.347,1.259 1.182,1.177 1.018,1.096 0.794,0.986 0.715,0.905 0.565,0.751 0.35,0.465 0.178,0.235 0.109,0.143 0.05,0.063 0,0"
             style="fill:#ff931e;fill-opacity:1;fill-rule:nonzero;stroke:none"
             id="path28" />
        </g>
        <g
           id="g30"
           transform="translate(13.7303,10.4651)">
          <path
             d="M 0,0 -0.15,1.127 -1.051,0.433 Z"
             style="fill:#ff931e;fill-opacity:1;fill-rule:nonzero;stroke:none"
             id="path32" />
        </g>
        <g
           id="g34"
           transform="translate(12.9523,1.5777)">
          <path
             d="m 0,0 z m -2.805,-0.353 c 1.168,-0.194 2.186,0.324 2.629,0.549 l 0.062,0.031 C -0.009,0.28 0.933,0.781 1.534,1.977 2.256,3.412 1.908,4.843 1.724,5.393 1.559,5.396 1.027,5.337 -0.404,4.745 -1.74,4.193 -2.367,2.913 -2.622,2.2 -3.025,1.071 -3.003,0.027 -2.831,-0.292 -2.82,-0.313 -2.812,-0.333 -2.805,-0.353 M -3.28,-0.532 c 0,0 0,-0.001 0,-0.001 0,0 0,0.001 0,0.001 m 0.988,-0.372 c -0.239,0 -0.488,0.023 -0.742,0.076 -0.063,0.013 -0.265,0.075 -0.264,0.332 -0.272,0.566 -0.19,1.784 0.197,2.867 0.489,1.37 1.378,2.38 2.503,2.844 2.21,0.914 2.625,0.724 2.745,0.502 C 2.152,5.706 2.157,5.695 2.161,5.684 2.341,5.199 2.86,3.481 1.989,1.749 1.329,0.434 0.312,-0.128 0.114,-0.227 L 0.055,-0.257 C -0.324,-0.45 -1.216,-0.904 -2.292,-0.904"
             style="fill:#ff931e;fill-opacity:1;fill-rule:nonzero;stroke:none"
             id="path36" />
        </g>
        <g
           id="g38"
           transform="translate(9.8149,0.7325)">
          <path
             d="M 0,0 C -0.095,0 -0.186,0.053 -0.23,0.144 -0.29,0.271 -0.237,0.423 -0.11,0.484 2.137,1.562 3.922,4.153 4.693,6.243 4.742,6.374 4.888,6.442 5.02,6.393 5.152,6.344 5.219,6.198 5.17,6.066 4.423,4.041 2.649,1.243 0.11,0.025 0.074,0.008 0.037,0 0,0"
             style="fill:#ff931e;fill-opacity:1;fill-rule:nonzero;stroke:none"
             id="path40" />
        </g>
        <g
           id="g42"
           transform="translate(13.394,3.9581)">
          <path
             d="M 0,0 C -0.07,0 -0.152,0.022 -0.213,0.11 -0.648,0.743 -0.957,1.852 -0.901,2.582 L -0.393,2.543 C -0.441,1.921 -0.182,1.059 0.115,0.544 0.46,0.648 1.272,0.932 1.66,1.152 L 1.911,0.709 C 1.591,0.527 1.067,0.331 0.784,0.231 0.604,0.167 0.426,0.108 0.283,0.064 0.215,0.043 0.16,0.028 0.118,0.017 0.093,0.011 0.049,0 0,0"
             style="fill:#ff931e;fill-opacity:1;fill-rule:nonzero;stroke:none"
             id="path44" />
        </g>
        <g
           id="g46"
           transform="translate(12.0773,2.0307)">
          <path
             d="m 0,0 c -0.157,0 -0.299,0.018 -0.438,0.057 l -0.11,0.031 -0.05,0.103 C -1.159,1.344 -1.44,1.923 -1.542,3.217 l 0.507,0.04 C -0.944,2.099 -0.706,1.579 -0.194,0.524 0.149,0.469 0.613,0.575 1.458,0.768 1.656,0.813 1.874,0.862 2.115,0.916 L 2.224,0.419 C 1.985,0.366 1.768,0.316 1.572,0.271 0.849,0.107 0.381,0 0,0"
             style="fill:#ff931e;fill-opacity:1;fill-rule:nonzero;stroke:none"
             id="path48" />
        </g>
        <g
           id="g50"
           transform="translate(13.2051,10.8725)">
          <path
             d="m 0,0 c -0.078,0 -0.155,0.036 -0.205,0.103 -1.061,1.43 -2.686,2.349 -4.457,2.519 -0.662,0.064 -1.323,0.024 -1.966,-0.118 -0.137,-0.031 -0.273,0.056 -0.303,0.193 -0.03,0.137 0.056,0.273 0.193,0.304 0.695,0.153 1.41,0.196 2.124,0.128 C -2.699,2.945 -0.943,1.952 0.204,0.406 0.288,0.293 0.264,0.134 0.151,0.05 0.106,0.016 0.053,0 0,0"
             style="fill:#ff931e;fill-opacity:1;fill-rule:nonzero;stroke:none"
             id="path52" />
        </g>
        <g
           id="g54"
           transform="translate(7.867,0.4116)">
          <path
             d="m 0,0 c -3.754,0 -6.809,3.054 -6.809,6.809 0,1.367 0.404,2.685 1.168,3.813 0.078,0.116 0.237,0.146 0.353,0.068 0.116,-0.079 0.147,-0.237 0.068,-0.354 C -5.926,9.293 -6.3,8.073 -6.3,6.809 c 0,-3.474 2.826,-6.3 6.3,-6.3 0.787,0 1.554,0.143 2.281,0.425 C 2.412,0.985 2.559,0.92 2.61,0.789 2.661,0.658 2.596,0.511 2.465,0.46 1.68,0.155 0.85,0 0,0"
             style="fill:#ff931e;fill-opacity:1;fill-rule:nonzero;stroke:none"
             id="path56" />
        </g>
        <g
           id="g58"
           transform="translate(4.9743,15.198)">
          <path
             d="M 0,0 C 0.124,0.09 0.319,0.059 0.41,-0.066 0.504,-0.193 0.476,-0.393 0.352,-0.482 0.222,-0.576 0.041,-0.544 -0.059,-0.409 -0.153,-0.283 -0.125,-0.091 0,0 m -0.21,-0.781 c -0.036,-0.144 -0.067,-0.289 -0.1,-0.433 -0.027,-0.122 -0.001,-0.232 0.071,-0.333 0.125,-0.178 0.249,-0.357 0.374,-0.535 0.113,-0.162 0.226,-0.324 0.34,-0.486 0.139,0.055 0.282,0.104 0.428,0.145 -0.01,0.017 -0.021,0.036 -0.036,0.057 -0.114,0.168 -0.232,0.333 -0.349,0.5 -0.113,0.163 -0.226,0.327 -0.34,0.489 -0.041,0.058 -0.056,0.119 -0.038,0.19 0.022,0.088 0.043,0.177 0.056,0.266 0.008,0.057 0.034,0.081 0.088,0.094 0.124,0.031 0.24,0.076 0.328,0.177 0.162,0.185 0.206,0.464 0.101,0.67 C 0.596,0.25 0.356,0.38 0.104,0.351 -0.147,0.322 -0.339,0.154 -0.399,-0.093 c -0.055,-0.223 0.005,-0.416 0.164,-0.579 0.033,-0.034 0.036,-0.065 0.025,-0.109"
             style="fill:#ff931e;fill-opacity:1;fill-rule:nonzero;stroke:none"
             id="path60" />
        </g>
        <g
           id="g62"
           transform="translate(3.1018,14.9661)">
          <path
             d="M 0,0 C 0.127,0.089 0.318,0.058 0.403,-0.064 0.498,-0.201 0.465,-0.375 0.327,-0.472 0.188,-0.569 0.017,-0.544 -0.077,-0.408 -0.163,-0.286 -0.151,-0.092 0,0 m 0.251,-0.832 c 0.047,0.009 0.067,-0.006 0.092,-0.041 0.23,-0.332 0.462,-0.663 0.694,-0.995 -10e-4,0 -0.002,-10e-4 -0.003,-10e-4 C 1.171,-2.066 1.308,-2.262 1.446,-2.458 1.503,-2.539 1.561,-2.621 1.619,-2.703 1.742,-2.626 1.87,-2.555 2,-2.49 1.569,-1.873 1.137,-1.255 0.704,-0.639 0.672,-0.594 0.669,-0.559 0.695,-0.509 0.8,-0.303 0.768,-0.022 0.626,0.139 0.454,0.335 0.19,0.406 -0.044,0.319 -0.282,0.23 -0.432,0.011 -0.434,-0.255 -0.437,-0.609 -0.096,-0.898 0.251,-0.832"
             style="fill:#ff931e;fill-opacity:1;fill-rule:nonzero;stroke:none"
             id="path64" />
        </g>
        <g
           id="g66"
           transform="translate(1.3358,14.7507)">
          <path
             d="m 0,0 c -0.123,-0.088 -0.325,-0.054 -0.412,0.069 -0.09,0.128 -0.055,0.327 0.074,0.417 0.128,0.089 0.326,0.055 0.41,-0.07 C 0.162,0.283 0.129,0.091 0,0 m 1.745,-1.556 c 0.174,-0.252 0.35,-0.502 0.526,-0.753 -10e-4,0 -10e-4,-10e-4 -0.002,-10e-4 0.156,-0.222 0.311,-0.444 0.466,-0.667 0.109,0.099 0.223,0.192 0.342,0.28 -0.343,0.49 -0.687,0.979 -1.029,1.47 -0.084,0.121 -0.192,0.19 -0.34,0.212 -0.246,0.037 -0.49,0.087 -0.735,0.13 -0.073,0.012 -0.125,0.05 -0.167,0.111 -0.141,0.205 -0.284,0.409 -0.43,0.61 C 0.341,-0.116 0.333,-0.08 0.361,-0.023 0.477,0.213 0.432,0.492 0.258,0.66 0.075,0.835 -0.2,0.887 -0.419,0.787 -0.641,0.686 -0.784,0.439 -0.766,0.191 c 0.025,-0.331 0.313,-0.568 0.662,-0.537 0.064,0.006 0.1,-0.013 0.135,-0.065 0.155,-0.23 0.317,-0.456 0.469,-0.687 0.079,-0.12 0.184,-0.182 0.321,-0.205 0.243,-0.04 0.485,-0.088 0.729,-0.126 0.088,-0.014 0.146,-0.055 0.195,-0.127"
             style="fill:#ff931e;fill-opacity:1;fill-rule:nonzero;stroke:none"
             id="path68" />
        </g>
        <g
           id="g70"
           transform="translate(1.774,12.3396)">
          <path
             d="M 0,0 C -0.134,-0.095 -0.315,-0.062 -0.411,0.074 -0.498,0.197 -0.464,0.391 -0.34,0.478 -0.214,0.567 -0.012,0.537 0.072,0.417 0.171,0.274 0.141,0.099 0,0 m 1.064,-0.193 c 0.21,-0.308 0.423,-0.615 0.634,-0.923 0.014,-0.021 0.028,-0.039 0.04,-0.055 0.091,0.118 0.188,0.232 0.29,0.341 C 1.921,-0.676 1.813,-0.522 1.706,-0.369 1.705,-0.369 1.705,-0.37 1.704,-0.37 1.581,-0.194 1.455,-0.019 1.334,0.16 1.262,0.267 1.164,0.324 1.039,0.341 0.897,0.36 0.755,0.387 0.612,0.396 0.48,0.405 0.395,0.456 0.322,0.573 0.193,0.781 -0.014,0.861 -0.254,0.825 -0.488,0.79 -0.653,0.654 -0.727,0.428 c -0.078,-0.236 -0.035,-0.45 0.152,-0.624 0.272,-0.253 0.727,-0.212 0.94,0.153 0.01,0.018 0.045,0.033 0.067,0.03 0.145,-0.016 0.289,-0.039 0.434,-0.056 0.087,-0.01 0.149,-0.051 0.198,-0.124"
             style="fill:#ff931e;fill-opacity:1;fill-rule:nonzero;stroke:none"
             id="path72" />
        </g>
        <g
           id="g74"
           transform="translate(12.7044,8.89)">
          <path
             d="M 0,0 C -0.485,0.094 -0.965,0.122 -1.425,0.083 -1.536,0.074 -1.634,0.062 -1.721,0.051 -2.016,0.015 -2.248,-0.014 -2.523,0.131 -2.935,0.348 -3.114,0.779 -3.272,1.16 -3.369,1.393 -3.403,1.544 -3.43,1.664 -3.455,1.776 -3.469,1.838 -3.525,1.933 -3.611,2.079 -3.721,2.124 -3.887,2.192 -4.058,2.261 -4.271,2.348 -4.459,2.569 -4.66,2.806 -4.776,3.111 -4.804,3.474 l 0.508,0.039 c 0.019,-0.254 0.095,-0.461 0.225,-0.615 0.107,-0.126 0.232,-0.176 0.376,-0.235 0.194,-0.079 0.435,-0.177 0.608,-0.471 0.098,-0.165 0.125,-0.287 0.154,-0.417 0.024,-0.107 0.051,-0.228 0.131,-0.42 0.131,-0.316 0.266,-0.642 0.516,-0.774 0.127,-0.067 0.229,-0.059 0.503,-0.025 0.091,0.011 0.195,0.024 0.316,0.034 0.507,0.043 1.032,0.012 1.563,-0.09 z"
             style="fill:#ff931e;fill-opacity:1;fill-rule:nonzero;stroke:none"
             id="path76" />
        </g>
      </g>
    </g>
  </g>
</svg>
